<?xml version="1.0" encoding="utf-8"?>
<!-- Generator: Adobe Illustrator 23.0.1, SVG Export Plug-In . SVG Version: 6.00 Build 0)  -->
<svg version="1.1" id="Layer_1" xmlns="http://www.w3.org/2000/svg" xmlns:xlink="http://www.w3.org/1999/xlink" x="0px" y="0px"
	 viewBox="0 0 308.8 307.7" style="enable-background:new 0 0 308.8 307.7;" xml:space="preserve">
<style type="text/css">
	.st0{fill:#FFFFFF;}
</style>
<g>
	<g>
		<path class="st0" d="M75,21.2C30.1,48.2,0,97.3,0,153.5c0,19.5,3.9,40,11.2,58.1c7.3,17.9,17.9,34.5,31.5,48.2
			c3.8,3.8,7.5,7.7,11.9,10.9c13.2,9.3,18.2,0.4,20.5-4c2.4-4.6,4.6-9.4,6.4-14.2c3.5-9.1,5.7-18.6,6.1-28.4
			c0.8-18-5.1-35.2-10.5-52.2C58.6,113.7,30.2,62,75,21.2z"/>
		<path class="st0" d="M241.5,26c0,0-5.5-3.5-5.7-3.4C212.1,7.7,184.7,0,154.6,0c-7.8,0-26.9,2.1-39.6,9.8
			C91.9,23.7,82.9,44,80.2,52c-5.2,15.3-1.7,31.6,2.2,46.8c4.7,18.1,10.3,36,16.1,53.8c6.5,20,13.6,40,15.6,61
			c1.4,14.2,0.2,28.5-2.4,42.4c-1.2,6.7-1.4,8.2-3,14.8c-2.9,12.6-7.3,16.5-4.8,25c3,10.6,40.9,11.8,50.3,11.8
			c9.4,0,18.8-1.1,28-2.5c14.1-2.1,20-9.6,23.8-22.9c4.2-14.7,6.5-30.4,7.7-45.6c1.9-24.8-2.5-50-8.6-74c-3-11.9-6.5-23.7-9.4-35.7
			c-0.6-5.8,0.2-12.8,8.2-13.4c9.1-0.6,17.1,8.3,24.4,23.4c14,36.6,23.2,83.7,5.6,144c44.9-26.9,75-71.5,75-127.7
			C308.8,100.4,282.1,53.7,241.5,26z"/>
	</g>
</g>
</svg>
